<svg width="601" height="633" viewBox="0 0 601 633" fill="none" xmlns="http://www.w3.org/2000/svg">
<g clip-path="url(#clip0_3_87)">
<path d="M417.329 128.422C375.668 122.044 328.225 118.641 278.815 118.641C233.597 118.641 190.032 121.487 151.043 126.853C151.052 126.279 151.061 125.705 151.087 125.13C152.121 91.7907 166.708 60.1617 191.73 37.0031C216.752 13.8446 250.225 0.993935 284.994 1.1977C319.762 1.40146 353.069 14.6435 377.794 38.0936C402.52 61.5436 416.703 93.3413 417.311 126.69C417.321 127.273 417.329 127.848 417.329 128.422Z" fill="#385E72"/>
<g opacity="0.1">
<path d="M301.648 1.14987C283.156 -1.24623 264.346 0.11181 246.436 5.13599C228.526 10.1602 211.916 18.7384 197.683 30.3146C183.45 41.8909 171.912 56.2068 163.815 72.3347C155.719 88.4626 151.246 106.042 150.685 123.935C150.658 124.509 150.649 125.084 150.641 125.658C162.224 124.064 174.219 122.697 186.534 121.557C188.04 91.7485 200.377 63.3868 221.404 41.393C242.431 19.3992 270.822 5.16129 301.648 1.14987Z" fill="white"/>
</g>
<path d="M475.577 138.555C456.399 133.567 436.947 129.606 417.311 126.69C385.127 121.906 352.682 118.915 320.137 117.732C306.58 117.2 292.774 116.926 278.815 116.926C267.752 116.926 256.778 117.097 245.956 117.44C214.21 118.34 182.54 120.907 151.087 125.13C127.804 128.205 104.747 132.689 82.0537 138.555C29.1414 152.588 0 171.396 0 191.508C0 211.619 29.1414 230.428 82.0537 244.461C119.265 254.337 165.144 261.066 215.135 264.153C235.769 265.439 257.1 266.09 278.815 266.09C300.602 266.09 322.005 265.43 342.702 264.144C388.196 261.324 430.287 255.486 465.514 246.999C465.702 246.947 465.881 246.904 466.068 246.862C468.445 246.296 470.786 245.704 473.101 245.113C473.932 244.89 474.754 244.676 475.577 244.461C475.623 244.443 475.671 244.429 475.719 244.418C476.506 244.213 477.283 243.998 478.061 243.793C479.616 243.364 481.153 242.944 482.663 242.507C482.734 242.49 482.797 242.472 482.86 242.455C484.173 242.078 485.46 241.701 486.738 241.324C487.783 241.006 488.82 240.698 489.848 240.381C490.599 240.149 491.341 239.918 492.073 239.686C492.609 239.515 493.137 239.352 493.655 239.18C494.361 238.958 495.067 238.726 495.764 238.495C496.059 238.4 496.354 238.306 496.64 238.203C497.31 237.989 497.962 237.766 498.614 237.543C499.32 237.303 500.026 237.054 500.723 236.814C501.305 236.617 501.885 236.411 502.457 236.206C502.94 236.026 503.413 235.854 503.896 235.683C505.209 235.211 506.497 234.723 507.766 234.243C508.4 233.994 509.034 233.754 509.66 233.505C510.276 233.265 510.902 233.017 511.51 232.768C512.51 232.365 513.493 231.962 514.459 231.559C514.923 231.354 515.397 231.156 515.853 230.968C516.201 230.814 516.541 230.668 516.89 230.514C517.14 230.411 517.39 230.299 517.631 230.188C518.534 229.793 519.427 229.391 520.303 228.988C523.663 227.445 526.8 225.867 529.713 224.256C547.988 214.217 557.63 203.081 557.63 191.508C557.63 171.396 528.489 152.588 475.577 138.555ZM475.094 242.815C437.838 252.7 391.834 259.429 341.709 262.49C321.325 263.733 300.254 264.375 278.815 264.375C257.448 264.375 236.448 263.741 216.127 262.498C165.922 259.446 119.846 252.717 82.5363 242.815C30.464 228.996 1.78728 210.779 1.78728 191.508C1.79019 189.805 2.01237 188.109 2.44878 186.459C7.00599 169.073 35.0395 152.802 82.5363 140.201C105.058 134.381 127.939 129.923 151.043 126.853C182.685 122.606 214.546 120.03 246.483 119.138C257.136 118.803 267.913 118.637 278.815 118.64C292.586 118.64 306.205 118.906 319.592 119.42C352.326 120.593 384.961 123.598 417.329 128.422C436.795 131.325 456.08 135.257 475.094 140.201C522.582 152.802 550.607 169.065 555.173 186.441C555.616 188.097 555.842 189.799 555.843 191.508C555.843 210.779 527.166 228.996 475.094 242.815Z" fill="#3F3D56"/>
<path d="M557.12 192.288C557.12 203.741 547.281 214.577 529.712 224.256C526.79 225.867 523.645 227.445 520.302 228.988C519.427 229.391 518.533 229.793 517.631 230.188C517.389 230.299 517.139 230.411 516.889 230.514C516.54 230.668 516.201 230.814 515.852 230.968C515.396 231.157 514.923 231.354 514.458 231.559C513.493 231.962 512.51 232.365 511.509 232.768C510.901 233.017 510.276 233.265 509.659 233.505C509.034 233.754 508.399 233.994 507.765 234.243C506.496 234.723 505.209 235.211 503.895 235.683C503.413 235.854 502.939 236.026 502.456 236.206C501.885 236.412 501.304 236.617 500.723 236.814C500.026 237.054 499.32 237.303 498.614 237.543C497.961 237.766 497.309 237.989 496.639 238.203C496.353 238.306 496.058 238.4 495.763 238.495C495.066 238.726 494.36 238.958 493.654 239.181C493.136 239.352 492.609 239.515 492.072 239.686C491.339 239.918 490.598 240.149 489.847 240.381C488.819 240.698 487.783 241.006 486.737 241.324C485.46 241.701 484.172 242.078 482.859 242.455C482.796 242.472 482.734 242.49 482.662 242.507C481.152 242.944 479.615 243.364 478.06 243.793C477.282 243.998 476.505 244.213 475.719 244.418C475.67 244.429 475.622 244.443 475.576 244.461C474.753 244.676 473.931 244.89 473.101 245.113C470.795 245.696 468.445 246.287 466.067 246.862C465.88 246.904 465.701 246.947 465.513 246.999C431.242 255.211 389.197 261.195 342.665 264.084C322.281 265.344 301.03 266.013 279.199 266.013C257.171 266.013 235.741 265.336 215.196 264.05C92.5533 256.377 1.27734 227.162 1.27734 192.288C1.287 190.166 1.62417 188.057 2.27789 186.03C2.33156 186.176 2.38522 186.313 2.44806 186.459C15.1999 218.589 105.699 244.556 223.123 250.891C241.112 251.868 259.744 252.374 278.814 252.374C297.965 252.374 316.669 251.859 334.729 250.882C452.055 244.521 542.465 218.546 555.172 186.442C555.387 185.927 555.574 185.413 555.735 184.898C556.641 187.266 557.11 189.766 557.12 192.288Z" fill="#3F3D56"/>
<path d="M81.9195 183.06C67.0469 183.06 51.2402 179.991 51.2402 174.302C51.2402 168.613 67.0469 165.543 81.9195 165.543C96.792 165.543 112.599 168.613 112.599 174.302C112.599 179.991 96.792 183.06 81.9195 183.06ZM81.9195 167.258C64.893 167.258 53.0275 170.97 53.0275 174.302C53.0275 177.634 64.893 181.346 81.9195 181.346C98.9459 181.346 110.811 177.634 110.811 174.302C110.811 170.97 98.9459 167.258 81.9195 167.258Z" fill="#3F3D56"/>
<path d="M145.367 223.352C130.494 223.352 114.688 220.282 114.688 214.593C114.688 208.904 130.494 205.835 145.367 205.835C160.239 205.835 176.046 208.904 176.046 214.593C176.046 220.282 160.239 223.352 145.367 223.352ZM145.367 207.549C128.34 207.549 116.475 211.262 116.475 214.593C116.475 217.925 128.34 221.637 145.367 221.637C162.393 221.637 174.259 217.925 174.259 214.593C174.259 211.262 162.393 207.549 145.367 207.549Z" fill="#3F3D56"/>
<path d="M475.121 183.06C460.248 183.06 444.441 179.991 444.441 174.302C444.441 168.613 460.248 165.543 475.121 165.543C489.993 165.543 505.8 168.613 505.8 174.302C505.8 179.991 489.993 183.06 475.121 183.06ZM475.121 167.258C458.094 167.258 446.229 170.97 446.229 174.302C446.229 177.634 458.094 181.346 475.121 181.346C492.147 181.346 504.013 177.634 504.013 174.302C504.013 170.97 492.147 167.258 475.121 167.258Z" fill="#3F3D56"/>
<path d="M411.671 223.352C396.799 223.352 380.992 220.282 380.992 214.593C380.992 208.904 396.799 205.835 411.671 205.835C426.544 205.835 442.351 208.904 442.351 214.593C442.351 220.282 426.544 223.352 411.671 223.352ZM411.671 207.549C394.645 207.549 382.779 211.262 382.779 214.593C382.779 217.925 394.645 221.637 411.671 221.637C428.698 221.637 440.563 217.925 440.563 214.593C440.563 211.262 428.698 207.549 411.671 207.549Z" fill="#3F3D56"/>
<path d="M278.519 242.212C263.647 242.212 247.84 239.142 247.84 233.453C247.84 227.764 263.647 224.695 278.519 224.695C293.392 224.695 309.198 227.764 309.198 233.453C309.198 239.142 293.392 242.212 278.519 242.212ZM278.519 226.409C261.492 226.409 249.627 230.122 249.627 233.453C249.627 236.785 261.492 240.497 278.519 240.497C295.545 240.497 307.411 236.785 307.411 233.453C307.411 230.122 295.545 226.409 278.519 226.409Z" fill="#3F3D56"/>
<path d="M301.136 422.389C321.871 422.389 338.679 406.264 338.679 386.373C338.679 366.482 321.871 350.357 301.136 350.357C280.401 350.357 263.592 366.482 263.592 386.373C263.592 406.264 280.401 422.389 301.136 422.389Z" fill="#2F2E41"/>
<path d="M286.86 410.036L268.588 418.814L273.695 428.597L291.967 419.819L286.86 410.036Z" fill="#2F2E41"/>
<path d="M276.104 427.604C277.187 426.028 274.513 422.503 270.131 419.731C265.748 416.959 261.317 415.99 260.233 417.566C259.15 419.143 261.824 422.668 266.207 425.44C270.589 428.212 275.02 429.181 276.104 427.604Z" fill="#2F2E41"/>
<path d="M315.414 410.036L310.307 419.819L328.579 428.597L333.686 418.814L315.414 410.036Z" fill="#2F2E41"/>
<path d="M336.066 425.44C340.449 422.668 343.123 419.143 342.039 417.566C340.956 415.99 336.525 416.959 332.142 419.731C327.76 422.503 325.085 426.028 326.169 427.605C327.253 429.181 331.684 428.212 336.066 425.44Z" fill="#2F2E41"/>
<path d="M298.507 389.873C305.594 389.873 311.339 384.362 311.339 377.564C311.339 370.765 305.594 365.254 298.507 365.254C291.421 365.254 285.676 370.765 285.676 377.564C285.676 384.362 291.421 389.873 298.507 389.873Z" fill="white"/>
<path d="M301.629 375.204C303.292 373.608 303.283 371.012 301.607 369.405C299.932 367.798 297.226 367.789 295.563 369.385C293.899 370.98 293.909 373.577 295.584 375.184C297.259 376.791 299.965 376.8 301.629 375.204Z" fill="#3F3D56"/>
<path d="M330.752 347.192C331.317 333.859 319.338 322.565 303.996 321.967C288.654 321.369 275.76 331.694 275.195 345.027C274.631 358.361 285.295 361.39 300.637 361.988C315.978 362.586 330.188 360.526 330.752 347.192Z" fill="#385E72"/>
<path d="M352.395 405.232C354.865 403.199 351.392 395.433 344.639 387.886C337.886 380.34 330.41 375.871 327.94 377.905C325.471 379.939 328.943 387.705 335.696 395.251C342.449 402.797 349.926 407.266 352.395 405.232Z" fill="#2F2E41"/>
<path d="M266.682 395.251C273.435 387.705 276.908 379.939 274.438 377.905C271.969 375.872 264.492 380.34 257.739 387.887C250.986 395.433 247.514 403.199 249.983 405.233C252.453 407.266 259.929 402.798 266.682 395.251Z" fill="#2F2E41"/>
<path d="M311.448 400.567C311.854 402.708 311.357 404.916 310.066 406.706C308.775 408.496 306.796 409.72 304.564 410.11C302.332 410.5 300.03 410.023 298.164 408.785C296.299 407.546 295.022 405.647 294.616 403.506L294.613 403.49C293.771 399.031 297.366 397.453 302.015 396.645C306.663 395.838 310.606 396.107 311.448 400.567Z" fill="white"/>
<path d="M237.707 424.685C237.233 424.685 236.779 424.504 236.443 424.182C236.108 423.861 235.92 423.425 235.92 422.97V321.813C235.92 321.358 236.108 320.922 236.443 320.6C236.779 320.279 237.233 320.098 237.707 320.098C238.181 320.098 238.636 320.279 238.971 320.6C239.306 320.922 239.494 321.358 239.494 321.813V422.97C239.494 423.425 239.306 423.861 238.971 424.182C238.636 424.504 238.181 424.685 237.707 424.685Z" fill="#CCCCCC"/>
<path d="M210.899 515.555C210.425 515.555 209.97 515.374 209.635 515.053C209.3 514.731 209.111 514.295 209.111 513.84V440.115C209.111 439.661 209.3 439.225 209.635 438.903C209.97 438.581 210.425 438.401 210.899 438.401C211.373 438.401 211.827 438.581 212.162 438.903C212.498 439.225 212.686 439.661 212.686 440.115V513.84C212.686 514.295 212.498 514.731 212.162 515.053C211.827 515.374 211.373 515.555 210.899 515.555Z" fill="#CCCCCC"/>
<path d="M279.709 454.689C279.235 454.688 278.781 454.508 278.445 454.186C278.11 453.865 277.922 453.429 277.922 452.974V351.817C277.922 351.362 278.11 350.926 278.445 350.604C278.781 350.283 279.235 350.102 279.709 350.102C280.183 350.102 280.638 350.283 280.973 350.604C281.308 350.926 281.496 351.362 281.496 351.817V452.974C281.496 453.429 281.308 453.865 280.973 454.186C280.638 454.508 280.183 454.688 279.709 454.689Z" fill="#CCCCCC"/>
<path d="M253.793 527.556C253.319 527.556 252.865 527.376 252.529 527.054C252.194 526.733 252.006 526.297 252.006 525.842V484.693C252.006 484.238 252.194 483.802 252.529 483.481C252.864 483.159 253.319 482.979 253.793 482.979C254.267 482.979 254.722 483.159 255.057 483.481C255.392 483.802 255.58 484.238 255.58 484.693V525.842C255.58 526.297 255.392 526.733 255.057 527.054C254.722 527.376 254.267 527.556 253.793 527.556Z" fill="#CCCCCC"/>
<path d="M290.432 316.669C289.958 316.669 289.503 316.488 289.168 316.166C288.833 315.845 288.645 315.409 288.645 314.954V273.805C288.645 273.351 288.833 272.915 289.168 272.593C289.503 272.271 289.958 272.091 290.432 272.091C290.906 272.091 291.36 272.271 291.696 272.593C292.031 272.915 292.219 273.351 292.219 273.805V314.954C292.219 315.409 292.031 315.845 291.696 316.166C291.36 316.488 290.906 316.669 290.432 316.669Z" fill="#CCCCCC"/>
<path d="M201.069 334.672C200.595 334.672 200.14 334.491 199.805 334.169C199.47 333.848 199.281 333.412 199.281 332.957V291.808C199.281 291.354 199.47 290.917 199.805 290.596C200.14 290.274 200.595 290.094 201.069 290.094C201.543 290.094 201.997 290.274 202.332 290.596C202.668 290.917 202.856 291.354 202.856 291.808V332.957C202.856 333.412 202.667 333.848 202.332 334.169C201.997 334.491 201.543 334.672 201.069 334.672Z" fill="#CCCCCC"/>
<path d="M356.563 338.958C356.089 338.958 355.634 338.777 355.299 338.456C354.964 338.134 354.775 337.698 354.775 337.243V296.094C354.775 295.64 354.964 295.204 355.299 294.882C355.634 294.561 356.089 294.38 356.563 294.38C357.037 294.38 357.491 294.561 357.826 294.882C358.162 295.204 358.35 295.64 358.35 296.094V337.243C358.35 337.698 358.162 338.134 357.826 338.456C357.491 338.777 357.037 338.958 356.563 338.958Z" fill="#CCCCCC"/>
<path d="M352.986 467.548C352.512 467.548 352.058 467.367 351.723 467.046C351.388 466.724 351.199 466.288 351.199 465.833V416.112C351.199 415.657 351.387 415.221 351.723 414.9C352.058 414.578 352.512 414.397 352.986 414.397C353.461 414.397 353.915 414.578 354.25 414.9C354.585 415.221 354.774 415.657 354.774 416.112V465.833C354.774 466.288 354.585 466.724 354.25 467.046C353.915 467.367 353.461 467.548 352.986 467.548Z" fill="#CCCCCC"/>
<path d="M317.242 511.268C316.768 511.268 316.314 511.088 315.979 510.766C315.643 510.444 315.455 510.008 315.455 509.554V435.829C315.455 435.374 315.643 434.938 315.979 434.616C316.314 434.295 316.768 434.114 317.242 434.114C317.716 434.114 318.171 434.295 318.506 434.616C318.841 434.938 319.03 435.374 319.03 435.829V509.554C319.03 510.008 318.841 510.444 318.506 510.766C318.171 511.088 317.716 511.268 317.242 511.268Z" fill="#CCCCCC"/>
<path d="M324.391 385.25C323.917 385.25 323.462 385.069 323.127 384.748C322.792 384.426 322.604 383.99 322.604 383.535V282.378C322.604 281.923 322.792 281.487 323.127 281.166C323.462 280.844 323.917 280.664 324.391 280.664C324.865 280.664 325.319 280.844 325.655 281.166C325.99 281.487 326.178 281.923 326.178 282.378V383.535C326.178 383.99 325.99 384.426 325.655 384.748C325.319 385.069 324.865 385.25 324.391 385.25Z" fill="#CCCCCC"/>
<path d="M543.505 600.507C546.063 598.453 542.606 590.45 535.783 582.633C528.961 574.816 521.356 570.144 518.798 572.199C516.24 574.254 519.697 582.256 526.52 590.073C533.342 597.89 540.947 602.562 543.505 600.507Z" fill="#2F2E41"/>
<path d="M526.727 591.618C533.449 572.274 522.551 551.365 502.386 544.917C482.221 538.469 460.425 548.923 453.704 568.267C446.982 587.612 457.88 608.52 478.045 614.968C498.21 621.416 520.005 610.962 526.727 591.618Z" fill="#2F2E41"/>
<path d="M506.507 608.918H494.814V629.014H506.507V608.918Z" fill="#2F2E41"/>
<path d="M483.122 608.918H471.43V629.014H483.122V608.918Z" fill="#2F2E41"/>
<path d="M496.763 632.752C502.144 632.752 506.506 631.183 506.506 629.247C506.506 627.311 502.144 625.742 496.763 625.742C491.382 625.742 487.02 627.311 487.02 629.247C487.02 631.183 491.382 632.752 496.763 632.752Z" fill="#2F2E41"/>
<path d="M473.378 632.285C478.759 632.285 483.122 630.716 483.122 628.78C483.122 626.844 478.759 625.275 473.378 625.275C467.997 625.275 463.635 626.844 463.635 628.78C463.635 630.716 467.997 632.285 473.378 632.285Z" fill="#2F2E41"/>
<path d="M478.132 533.533C481.569 520.256 496.738 512.444 512.014 516.082C527.29 519.721 536.888 533.434 533.451 546.71C530.015 559.987 518.614 560.029 503.338 556.391C488.062 552.752 474.696 546.809 478.132 533.533Z" fill="#CCCCCC"/>
<path d="M464.255 570.722C465.685 567.83 459.06 561.944 449.457 557.575C439.854 553.206 430.911 552.009 429.481 554.901C428.052 557.792 434.677 563.678 444.279 568.047C453.882 572.416 462.825 573.614 464.255 570.722Z" fill="#2F2E41"/>
<path d="M484.462 584.461C491.549 584.461 497.294 578.95 497.294 572.152C497.294 565.354 491.549 559.843 484.462 559.843C477.376 559.843 471.631 565.354 471.631 572.152C471.631 578.95 477.376 584.461 484.462 584.461Z" fill="white"/>
<path d="M479.189 571.843C481.551 571.843 483.466 570.006 483.466 567.74C483.466 565.474 481.551 563.637 479.189 563.637C476.827 563.637 474.912 565.474 474.912 567.74C474.912 570.006 476.827 571.843 479.189 571.843Z" fill="#3F3D56"/>
<path d="M484.352 602.996C487.313 602.996 489.714 600.693 489.714 597.852C489.714 595.011 487.313 592.708 484.352 592.708C481.391 592.708 478.99 595.011 478.99 597.852C478.99 600.693 481.391 602.996 484.352 602.996Z" fill="white"/>
<path d="M600.107 633H389.208C388.971 633 388.744 632.91 388.576 632.749C388.409 632.588 388.314 632.37 388.314 632.143C388.314 631.916 388.409 631.697 388.576 631.537C388.744 631.376 388.971 631.286 389.208 631.286H600.107C600.344 631.286 600.571 631.376 600.739 631.537C600.906 631.697 601 631.916 601 632.143C601 632.37 600.906 632.588 600.739 632.749C600.571 632.91 600.344 633 600.107 633Z" fill="#3F3D56"/>
</g>
<defs>
<clipPath id="clip0_3_87">
<rect width="601" height="633" fill="white"/>
</clipPath>
</defs>
</svg>
